<?xml version="1.0" encoding="UTF-8" standalone="no"?>
<svg
   xmlns:dc="http://purl.org/dc/elements/1.1/"
   xmlns:cc="http://creativecommons.org/ns#"
   xmlns:rdf="http://www.w3.org/1999/02/22-rdf-syntax-ns#"
   xmlns:svg="http://www.w3.org/2000/svg"
   xmlns="http://www.w3.org/2000/svg"
   xmlns:sodipodi="http://sodipodi.sourceforge.net/DTD/sodipodi-0.dtd"
   xmlns:inkscape="http://www.inkscape.org/namespaces/inkscape"
   sodipodi:docname="nlw3.svg"
   inkscape:version="1.0 (4035a4fb49, 2020-05-01)"
   id="svg8"
   version="1.1"
   viewBox="0 0 63.499999 18.733559"
   height="70.804001"
   width="240">
  <defs
     id="defs2" />
  <sodipodi:namedview
     inkscape:window-maximized="1"
     inkscape:window-y="-8"
     inkscape:window-x="-8"
     inkscape:window-height="1017"
     inkscape:window-width="1920"
     units="px"
     showgrid="false"
     inkscape:document-rotation="0"
     inkscape:current-layer="layer1"
     inkscape:document-units="mm"
     inkscape:cy="182.79956"
     inkscape:cx="215.94926"
     inkscape:zoom="0.96377841"
     inkscape:pageshadow="2"
     inkscape:pageopacity="0.0"
     borderopacity="1.0"
     bordercolor="#666666"
     pagecolor="#ffffff"
     id="base" />
  <metadata
     id="metadata5">
    <rdf:RDF>
      <cc:Work
         rdf:about="">
        <dc:format>image/svg+xml</dc:format>
        <dc:type
           rdf:resource="http://purl.org/dc/dcmitype/StillImage" />
        <dc:title></dc:title>
      </cc:Work>
    </rdf:RDF>
  </metadata>
  <g
     id="layer1"
     inkscape:groupmode="layer"
     inkscape:label="Layer 1">
    <g
       style="stroke-width:0.999975"
       transform="matrix(1.0000249,0,0,1.0000249,-8.9016153,-1.4921208)"
       id="g843">
      <path
         style="fill:#8257e5;fill-opacity:1;stroke-width:0.264576"
         d="M 30.743127,11.546671 V 4.4048727 h 1.249019 1.249009 V 11.546671 18.68847 H 31.992146 30.743127 Z M 18.381092,13.56431 V 8.5682535 h 1.216988 1.216985 v 0.4163384 c 0,0.2289848 0.01484,0.4163376 0.03292,0.4163376 0.01808,0 0.188283,-0.126536 0.378159,-0.2811912 1.184238,-0.9645729 2.991659,-1.1535917 4.326012,-0.4524104 1.078889,0.5669416 1.84661,1.7877931 1.97265,3.1369761 0.02626,0.281046 0.04001,1.916133 0.0305,3.633527 l -0.0172,3.122536 H 26.322315 25.106527 V 15.68979 c 0,-1.789367 -0.02622,-3.013728 -0.06956,-3.250638 -0.198741,-1.085828 -0.907731,-1.755153 -1.860651,-1.756557 -0.585329,-10e-4 -1.026625,0.155797 -1.41011,0.500579 -0.370668,0.333263 -0.587104,0.728381 -0.772622,1.410484 -0.122743,0.45128 -0.135674,0.707977 -0.162646,3.228485 l -0.0293,2.738224 h -1.210275 -1.210282 z m 20.631917,4.467626 c -0.286603,-0.769079 -3.401928,-9.7740194 -3.401928,-9.8333862 0,-0.059593 0.314707,-0.078662 1.298221,-0.078662 h 1.298226 l 0.955636,2.9303812 c 0.525592,1.611709 0.975804,2.954527 1.000456,2.984042 0.02468,0.02951 0.181886,-0.3596 0.349389,-0.864703 0.16751,-0.505101 0.620924,-1.84792 1.007596,-2.984041 l 0.703032,-2.0656792 h 0.946519 0.946511 l 0.253949,0.7205869 c 0.139669,0.3963224 0.592677,1.7391343 1.006672,2.9840273 0.414,1.24489 0.775332,2.239298 0.802968,2.209792 0.02764,-0.0295 0.472551,-1.350654 0.988708,-2.935889 0.516157,-1.5852351 0.960745,-2.9045185 0.987965,-2.9317436 0.0272,-0.027224 0.627804,-0.041678 1.334623,-0.032124 l 1.28512,0.01738 -1.741876,4.9960566 -1.741875,4.996057 -1.029802,0.01758 -1.029808,0.01758 -0.254889,-0.722136 c -0.140191,-0.397179 -0.595023,-1.710282 -1.010744,-2.918013 -0.415715,-1.207729 -0.778201,-2.173312 -0.805519,-2.145741 -0.02731,0.02757 -0.467208,1.246301 -0.977535,2.708288 -0.510325,1.461985 -0.961559,2.751833 -1.002736,2.866325 l -0.07486,0.20817 h -1.020153 c -0.999319,0 -1.021251,-0.0029 -1.07386,-0.144115 z M 67.275715,6.075559 C 66.933436,5.9898847 66.618844,5.7519572 66.43554,5.4401429 L 66.259966,5.141471 V 3.8268455 c 0,-1.2840645 0.0039,-1.3220216 0.163633,-1.6327545 0.428037,-0.832148 1.595435,-0.949015 2.184486,-0.2186854 0.299343,0.3711348 0.392866,0.9013406 0.360398,2.0431647 -0.02136,0.7514801 -0.05534,1.0574621 -0.138801,1.2510055 -0.125092,0.2900246 -0.378829,0.5795815 -0.616971,0.7040911 -0.215384,0.112604 -0.688615,0.1640647 -0.936996,0.1018921 z m 0.493019,-0.6477531 c 0.06778,-0.03627 0.173972,-0.158772 0.235984,-0.2722213 0.09582,-0.1752943 0.112756,-0.3794071 0.112756,-1.3592059 0,-0.9888229 -0.01635,-1.1829592 -0.115158,-1.3638563 -0.222292,-0.4071416 -0.636031,-0.3937083 -0.836732,0.027165 -0.1534,0.321691 -0.153217,2.3520835 2.44e-4,2.6738998 0.144764,0.3035716 0.375252,0.416052 0.6029,0.2942171 z m 2.769305,0.6353387 C 70.369278,6.0234119 70.159155,5.8990513 69.976323,5.7306972 69.741456,5.5144392 69.673532,5.4021088 69.629701,5.1574839 l -0.0545,-0.304247 h 0.395735 0.395748 l 0.11126,0.252184 c 0.329742,0.74738 1.2821,0.2288719 1.064419,-0.5795216 C 71.460047,4.220208 71.276764,4.0924121 70.847798,4.0416064 L 70.519441,4.0027147 V 3.7234024 3.4440903 h 0.305999 c 0.376437,0 0.565965,-0.1242804 0.649189,-0.4257077 0.127678,-0.4624074 -0.116371,-0.8766833 -0.516445,-0.8766833 -0.211757,0 -0.502802,0.2554209 -0.502802,0.4412601 0,0.071153 -0.0961,0.092507 -0.416336,0.092507 -0.467163,0 -0.487046,-0.027033 -0.317818,-0.4320643 0.209751,-0.5019984 0.612639,-0.7405644 1.246472,-0.738076 0.734593,0.00286 1.196863,0.2990317 1.349056,0.8642512 0.118462,0.4399252 0.02581,0.8055073 -0.28219,1.1133803 L 71.768448,3.74897 71.974589,3.8840239 c 0.299203,0.196024 0.429957,0.4831679 0.426747,0.9371847 -0.0028,0.4108439 -0.107283,0.6779691 -0.355452,0.9096845 -0.325098,0.3035425 -0.999048,0.4520456 -1.507834,0.332249 z m -7.320058,-0.072984 c 4.83e-4,-0.077628 0.0951,-0.7311928 0.15766,-1.0888845 0.0302,-0.1726807 0.02458,-0.1761428 -0.287852,-0.1761428 H 62.769132 V 4.4689249 4.212717 h 0.345158 c 0.38612,0 0.351126,0.054873 0.459528,-0.7205854 l 0.04254,-0.304247 H 63.320854 63.025349 V 2.9350241 2.6821636 l 0.336121,-0.019361 0.336126,-0.019361 0.08859,-0.5604549 0.08859,-0.5604554 h 0.247836 c 0.136304,0 0.247792,0.00721 0.247748,0.016014 -4.4e-5,0.00881 -0.04327,0.261012 -0.09599,0.5604549 -0.05278,0.2994433 -0.09594,0.5516482 -0.09599,0.5604553 -4.4e-5,0.00881 0.111437,0.016014 0.247747,0.016014 h 0.24783 l 0.08852,-0.5604548 0.08852,-0.5604554 0.240117,-0.019882 c 0.278598,-0.023065 0.276857,-0.030913 0.150247,0.6764128 l -0.08313,0.464377 h 0.310677 0.31067 v 0.256207 0.2562084 H 65.434574 65.08956 l -0.04254,0.304247 C 65.0236,3.659466 64.98832,3.8900531 64.96856,4.004546 l -0.03593,0.2081692 h 0.295366 0.295354 V 4.468923 4.7251314 h -0.319036 c -0.354435,0 -0.341348,-0.019086 -0.417292,0.608494 -0.09055,0.7482648 -0.08489,0.7365983 -0.358078,0.7365983 -0.234478,0 -0.245918,-0.00925 -0.21777,-0.1761439 0.0163,-0.096879 0.05885,-0.3471716 0.09447,-0.5562057 0.09427,-0.5531635 0.09575,-0.5486906 -0.181069,-0.5486906 h -0.245851 l -0.08477,0.6405187 -0.08478,0.6405215 h -0.245846 c -0.154234,0 -0.245667,-0.029835 -0.245361,-0.080065 z M 64.45621,4.1006257 c 0.01613,-0.026422 0.05,-0.242597 0.0753,-0.4803899 L 64.5775,3.1878846 h -0.22733 c -0.25609,0 -0.268715,0.02229 -0.33561,0.5924812 L 63.97134,4.148665 h 0.227786 c 0.125281,0 0.240963,-0.021619 0.257069,-0.048042 z"
         id="path919" />
      <path
         sodipodi:nodetypes="sscssscccsscccsscssssscsssscccccsssscccsss"
         style="fill:#000000;fill-opacity:1;stroke-width:0.264576"
         d="m 50.690623,19.088796 c 0.183573,-0.62531 1.12443,-3.838718 2.090797,-7.140906 l 1.757027,-6.0039825 1.271881,-9.92e-4 c 1.059945,-7.12e-4 1.266188,0.013942 1.237704,0.088163 -0.01879,0.048982 -0.964801,3.2627932 -2.102234,7.1418005 L 52.87774,20.225618 H 51.617301 50.356862 Z M 12.408241,16.975782 8.901394,15.588862 V 14.170046 12.75123 l 1.553261,-0.615691 c 0.854294,-0.33863 2.461197,-0.973991 3.570899,-1.411913 l 2.01764,-0.7962197 0.01735,1.3203947 c 0.0095,0.726216 0.0052,1.352084 -0.0097,1.390817 -0.01486,0.03873 -0.800906,0.382158 -1.746761,0.763163 -0.945853,0.381005 -1.742811,0.713249 -1.771014,0.738322 -0.0282,0.02507 0.757231,0.372719 1.745416,0.772544 l 1.796697,0.726954 v 1.364304 c 0,1.050212 -0.01842,1.363672 -0.08007,1.361551 -0.04404,-0.0014 -1.658147,-0.626868 -3.586911,-1.389674 z M 57.580917,16.874473 V 15.50884 l 1.829096,-0.738271 1.829095,-0.738271 -1.81308,-0.735318 -1.813082,-0.735321 -0.01736,-1.306414 c -0.0096,-0.718529 -0.0038,-1.3412643 0.01236,-1.3838603 0.02028,-0.052784 0.454118,0.091802 1.362481,0.4540553 0.733017,0.292326 2.334369,0.927166 3.558566,1.410758 l 2.225809,0.879253 v 1.42379 1.423787 l -3.538881,1.389715 c -1.946378,0.764344 -3.560489,1.389189 -3.586911,1.388539 -0.02643,-7.22e-4 -0.04803,-0.61571 -0.04803,-1.366809 z"
         id="path917" />
    </g>
  </g>
</svg>
